<?xml version="1.0" standalone="no"?>
<!DOCTYPE svg PUBLIC "-//W3C//DTD SVG 20010904//EN"
 "http://www.w3.org/TR/2001/REC-SVG-20010904/DTD/svg10.dtd">
<svg version="1.0" xmlns="http://www.w3.org/2000/svg"
 width="501.000000pt" height="501.000000pt" viewBox="0 0 501.000000 501.000000"
 preserveAspectRatio="xMidYMid meet">
<metadata>
Created by potrace 1.11, written by Peter Selinger 2001-2013
</metadata>
<g transform="translate(0.000000,501.000000) scale(0.100000,-0.100000)"
fill="#000000" stroke="none">
<path d="M2325 5003 c-22 -2 -103 -12 -180 -23 -529 -74 -1023 -322 -1408
-706 -350 -349 -591 -799 -686 -1279 -19 -100 -24 -134 -40 -275 -8 -75 -6
-423 3 -470 2 -14 7 -52 11 -85 4 -32 8 -62 10 -65 1 -3 6 -25 9 -50 10 -74
71 -298 111 -405 49 -133 148 -338 219 -452 50 -81 168 -249 185 -263 3 -3 31
-34 61 -70 326 -385 836 -688 1345 -799 220 -48 570 -72 745 -51 36 4 90 10
120 14 160 16 399 78 588 152 342 133 633 329 903 609 292 302 518 717 617
1136 52 217 67 354 66 604 -1 329 -54 604 -176 910 -228 573 -661 1039 -1223
1315 -268 132 -521 206 -840 245 -56 7 -378 13 -440 8z"/>
</g>
</svg>
